# xmcd
# Copyright (C) 1995-1998 Ti Kan
#
# Track frame offsets:
#       150
#       30600
#       50885
#       72707
#       97800
#       117490
#       132625
#       155472
#       169845
#       191850
#
# Disc length: 2786 seconds
#
# Revision: 0
# Processed by: cddbd v1.5.2PL0 Copyright (c) Steve Scherf et al.
# Submitted via: CD-Import v1.0
#
DISCID=980ae00a
DTITLE=Smoke City - Flying Away
DYEAR=97
DGENRE=
TTITLE0=Underwater Love
TTITLE1=Devil Mood
TTITLE2=With You
TTITLE3=Numbers
TTITLE4=Mr. Gorgeous
TTITLE5=Acuas De Março
TTITLE6=Dark Walk
TTITLE7=Jamie Pan
TTITLE8=Giulietta
TTITLE9=Flying Away
EXTD=
EXTT0=
EXTT1=
EXTT2=
EXTT3=
EXTT4=
EXTT5=
EXTT6=
EXTT7=
EXTT8=
EXTT9=
PLAYORDER=
